<?xml version="1.0" encoding="UTF-8" standalone="no"?>
<svg xmlns:xhtml="http://www.w3.org/1999/xhtml" xmlns:dc="http://purl.org/dc/elements/1.1/" xmlns:cc="http://creativecommons.org/ns#" xmlns:rdf="http://www.w3.org/1999/02/22-rdf-syntax-ns#" xmlns:svg="http://www.w3.org/2000/svg" xmlns="http://www.w3.org/2000/svg" class="nicermediapages-SVG hovered" xml:space="preserve" id="Ebene_1" viewBox="0 0 689.63 264.958" height="264.95801" width="689.63" version="1.0">
     <defs id="defs14"/><path id="path3" d="M 195.937,235.483 L 152.844,235.483 L 139.022,182.631 L 76.685,182.631 L 62.863,235.483 L 19.768,235.483 L 78.853,24.624 L 135.769,24.624 L 195.937,235.483 z M 108.395,60.942 L 107.311,60.942 L 85.086,149.294 L 130.619,149.294 L 108.395,60.942 z M 256.92,235.483 C 218.434,235.483 188.89,211.088 188.89,174.77 C 188.89,153.632 200.274,135.473 219.517,126.26 C 202.443,116.771 192.958,102.406 192.958,82.624 C 192.958,48.474 210.302,24.624 278.601,24.624 L 339.311,24.624 L 339.311,235.483 L 256.92,235.483 L 256.92,235.483 z M 297.033,57.96 C 267.22,57.96 236.322,54.707 236.322,84.791 C 236.322,113.79 265.864,110.268 297.033,110.268 L 297.033,57.96 z M 297.033,202.147 L 297.033,142.25 C 256.108,139.269 232.258,143.063 232.258,171.79 C 232.258,203.772 256.921,202.147 269.66,202.147 L 297.033,202.147 z M 351.826,235.483 L 351.826,24.624 L 412.536,24.624 C 480.837,24.624 498.18,48.474 498.18,82.624 C 498.18,102.406 488.694,116.771 471.617,126.26 C 490.865,135.473 502.242,153.633 502.242,174.77 C 502.242,211.088 472.702,235.483 434.221,235.483 L 351.826,235.483 L 351.826,235.483 z M 394.103,110.267 C 425.273,110.267 454.813,113.789 454.813,84.79 C 454.813,54.707 423.917,57.959 394.103,57.959 L 394.103,110.267 z M 421.477,202.147 C 434.219,202.147 458.883,203.772 458.883,171.79 C 458.883,143.063 435.029,139.269 394.103,142.25 L 394.103,202.147 L 421.477,202.147 z M 668.797,235.483 L 625.709,235.483 L 611.887,182.631 L 549.547,182.631 L 535.725,235.483 L 492.633,235.483 L 551.717,24.624 L 608.636,24.624 L 668.797,235.483 z M 581.257,60.942 L 580.177,60.942 L 557.948,149.294 L 603.48,149.294 L 581.257,60.942 z"/><g id="g5"/><rect style="fill:none" id="rect11" y="0" x="0" height="264.95801" width="689.63"/></svg>